<svg width="49" height="9" viewBox="0 0 49 9" fill="none" xmlns="http://www.w3.org/2000/svg">
<path d="M4.24345 1.06003C4.29087 0.914083 4.49735 0.914083 4.54477 1.06003L5.21214 3.11396C5.23335 3.17924 5.29417 3.22343 5.3628 3.22343L7.52243 3.22343C7.67589 3.22343 7.7397 3.4198 7.61555 3.51L5.86837 4.7794C5.81284 4.81974 5.78961 4.89124 5.81082 4.95651L6.47818 7.01045C6.5256 7.1564 6.35856 7.27776 6.23441 7.18756L4.48723 5.91816C4.4317 5.87782 4.35652 5.87782 4.301 5.91816L2.55382 7.18756C2.42967 7.27776 2.26262 7.1564 2.31004 7.01045L2.97741 4.95651C2.99862 4.89124 2.97538 4.81974 2.91986 4.7794L1.17268 3.51C1.04853 3.4198 1.11233 3.22343 1.26579 3.22343L3.42543 3.22343C3.49406 3.22343 3.55488 3.17924 3.57609 3.11396L4.24345 1.06003Z" fill="#F1CC4A"/>
<path d="M24.5206 1.06006C24.568 0.914113 24.7745 0.914113 24.8219 1.06006L25.4892 3.114C25.5104 3.17927 25.5713 3.22346 25.6399 3.22346L27.7995 3.22346C27.953 3.22346 28.0168 3.41983 27.8926 3.51003L26.1455 4.77943C26.0899 4.81977 26.0667 4.89127 26.0879 4.95655L26.7553 7.01048C26.8027 7.15643 26.6357 7.27779 26.5115 7.18759L24.7643 5.91819C24.7088 5.87785 24.6336 5.87785 24.5781 5.91819L22.8309 7.18759C22.7068 7.27779 22.5397 7.15643 22.5871 7.01048L23.2545 4.95655C23.2757 4.89127 23.2525 4.81977 23.197 4.77943L21.4498 3.51003C21.3256 3.41983 21.3894 3.22346 21.5429 3.22346L23.7025 3.22346C23.7712 3.22346 23.832 3.17927 23.8532 3.114L24.5206 1.06006Z" fill="#F1CC4A"/>
<path d="M14.3819 1.06006C14.4294 0.914113 14.6358 0.914113 14.6833 1.06006L15.3506 3.114C15.3718 3.17927 15.4327 3.22346 15.5013 3.22346L17.6609 3.22346C17.8144 3.22346 17.8782 3.41983 17.754 3.51003L16.0069 4.77943C15.9513 4.81977 15.9281 4.89127 15.9493 4.95655L16.6167 7.01048C16.6641 7.15643 16.497 7.27779 16.3729 7.18759L14.6257 5.91819C14.5702 5.87785 14.495 5.87785 14.4395 5.91819L12.6923 7.18759C12.5682 7.27779 12.4011 7.15643 12.4485 7.01048L13.1159 4.95655C13.1371 4.89127 13.1139 4.81977 13.0583 4.77943L11.3112 3.51003C11.187 3.41983 11.2508 3.22346 11.4043 3.22346L13.5639 3.22346C13.6325 3.22346 13.6934 3.17927 13.7146 3.114L14.3819 1.06006Z" fill="#F1CC4A"/>
<path d="M34.6592 1.06006C34.7066 0.914113 34.9131 0.914113 34.9605 1.06006L35.6278 3.114C35.6491 3.17927 35.7099 3.22346 35.7785 3.22346L37.9381 3.22346C38.0916 3.22346 38.1554 3.41983 38.0313 3.51003L36.2841 4.77943C36.2286 4.81977 36.2053 4.89127 36.2265 4.95655L36.8939 7.01048C36.9413 7.15643 36.7743 7.27779 36.6501 7.18759L34.9029 5.91819C34.8474 5.87785 34.7722 5.87785 34.7167 5.91819L32.9695 7.18759C32.8454 7.27779 32.6783 7.15643 32.7258 7.01048L33.3931 4.95655C33.4143 4.89127 33.3911 4.81977 33.3356 4.77943L31.5884 3.51003C31.4642 3.41983 31.528 3.22346 31.6815 3.22346L33.8411 3.22346C33.9098 3.22346 33.9706 3.17927 33.9918 3.114L34.6592 1.06006Z" fill="#F1CC4A"/>
<path d="M44.7976 1.06006C44.845 0.914113 45.0515 0.914113 45.0989 1.06006L45.7663 3.114C45.7875 3.17927 45.8483 3.22346 45.9169 3.22346L48.0766 3.22346C48.23 3.22346 48.2938 3.41983 48.1697 3.51003L46.4225 4.77943C46.367 4.81977 46.3437 4.89127 46.365 4.95655L47.0323 7.01048C47.0797 7.15643 46.9127 7.27779 46.7885 7.18759L45.0414 5.91819C44.9858 5.87785 44.9107 5.87785 44.8551 5.91819L43.108 7.18759C42.9838 7.27779 42.8168 7.15643 42.8642 7.01048L43.5315 4.95655C43.5528 4.89127 43.5295 4.81977 43.474 4.77943L41.7268 3.51003C41.6027 3.41983 41.6665 3.22346 41.8199 3.22346L43.9796 3.22346C44.0482 3.22346 44.109 3.17927 44.1302 3.114L44.7976 1.06006Z" fill="#F1CC4A"/>
</svg>
